<?xml version="1.0" standalone="no"?>
<!DOCTYPE svg PUBLIC "-//W3C//DTD SVG 20010904//EN"
 "http://www.w3.org/TR/2001/REC-SVG-20010904/DTD/svg10.dtd">
<svg version="1.0" xmlns="http://www.w3.org/2000/svg"
 width="24.000000pt" height="24.000000pt" viewBox="0 0 24.000000 24.000000"
 preserveAspectRatio="xMidYMid meet">

<g transform="translate(0.000000,24.000000) scale(0.100000,-0.100000)"
fill="#000000" stroke="none">
<path d="M38 160 c3 -25 9 -39 16 -37 6 2 10 14 8 25 -2 14 3 25 14 29 16 6
16 7 -2 14 -35 14 -40 10 -36 -31z"/>
<path d="M126 114 c-4 -14 -5 -29 -2 -31 3 -3 8 7 12 21 3 15 4 29 1 32 -2 3
-8 -7 -11 -22z"/>
<path d="M156 125 c-3 -9 -6 -24 -5 -33 0 -9 5 -4 10 12 9 32 6 48 -5 21z"/>
<path d="M199 119 c-14 -27 4 -50 24 -30 10 10 9 11 -5 6 -19 -8 -23 2 -9 24
5 8 14 10 21 6 9 -5 11 -4 6 3 -11 18 -24 14 -37 -9z"/>
<path d="M10 105 c0 -14 4 -25 9 -25 4 0 6 11 3 25 -2 14 -6 25 -8 25 -2 0 -4
-11 -4 -25z"/>
<path d="M62 101 c-10 -6 -5 -15 18 -35 28 -23 42 -29 101 -40 12 -3 16 3 15
20 -1 26 -16 34 -16 8 0 -22 -38 -9 -75 27 -20 18 -35 25 -43 20z"/>
<path d="M42 63 c1 -10 -1 -24 -5 -31 -9 -14 8 -15 38 -2 17 7 17 9 3 9 -11 1
-18 9 -18 21 0 11 -5 20 -11 20 -5 0 -9 -8 -7 -17z"/>
</g>
</svg>
